<svg width="260" height="70" viewBox="0 0 268 71" fill="none" xmlns="http://www.w3.org/2000/svg">
<path d="M19.8915 3.62082C88.2867 0.355713 145.239 8.31442 248.255 3.62082M19.8915 3.62082C91.235 5.51575 165.352 -0.0524261 248.255 3.62082M19.8915 3.62082C12.1266 6.47779 -1.21378 6.15712 3.74873 19.7423M19.8915 3.62082C8.71125 -2.88024 -2.38143 13.5328 3.74873 19.7423M248.255 3.62082C254.706 2.39641 266.558 12.2209 264.427 19.7423M248.255 3.62082C262.121 8.75171 258.209 9.97613 264.427 19.7423M264.427 19.7423C267.609 24.0278 263.201 36.1553 264.427 52.0144M264.427 19.7423C262.851 29.9166 264.398 39.0123 264.427 52.0144M264.427 52.0144C262.062 57.8158 259.523 70.2349 248.255 68.1651M264.427 52.0144C264.573 58.3114 263.755 72.5671 248.255 68.1651M248.255 68.1651C196.645 68.1067 147.428 68.7481 19.8915 68.1651M248.255 68.1651C201.52 66.7366 151.749 65.3372 19.8915 68.1651M19.8915 68.1651C5.41264 72.5671 1.99726 64.6376 3.74873 52.0144M19.8915 68.1651C11.1633 62.626 1.1799 64.8708 3.74873 52.0144M3.74873 52.0144C3.25248 39.9743 6.78463 31.899 3.74873 19.7423M3.74873 52.0144C4.04065 44.2306 2.75623 32.4821 3.74873 19.7423" stroke="#1E1E1E" stroke-width="3" stroke-linecap="round"/>
</svg>
