<svg width="375" height="91" viewBox="0 0 375 91" fill="none" xmlns="http://www.w3.org/2000/svg">
<g filter="url(#filter0_f_6_278)">
<path d="M35.8232 13.4964C126.894 10.2313 202.728 18.19 339.898 13.4964M35.8232 13.4964C130.82 15.3913 229.509 9.82312 339.898 13.4964M35.8232 13.4964C25.484 16.3533 7.72073 16.0327 14.3285 29.6179M35.8232 13.4964C20.9363 6.9953 6.16596 23.4083 14.3285 29.6179M339.898 13.4964C348.488 12.272 364.269 22.0964 361.431 29.6179M339.898 13.4964C358.361 18.6273 353.152 19.8517 361.431 29.6179M361.431 29.6179C365.668 33.9033 359.799 46.0309 361.431 61.89M361.431 29.6179C359.332 39.7922 361.392 48.8878 361.431 61.89M361.431 61.89C358.283 67.6914 354.901 80.1105 339.898 78.0406M361.431 61.89C361.626 68.187 360.537 82.4427 339.898 78.0406M339.898 78.0406C271.177 77.9823 205.643 78.6237 35.8232 78.0406M339.898 78.0406C277.668 76.6121 211.396 75.2128 35.8232 78.0406M35.8232 78.0406C16.5441 82.4427 11.9963 74.5131 14.3285 61.89M35.8232 78.0406C24.2013 72.5016 10.908 74.7463 14.3285 61.89M14.3285 61.89C13.6677 49.8499 18.3709 41.7746 14.3285 29.6179M14.3285 61.89C14.7172 54.1062 13.007 42.3576 14.3285 29.6179" stroke="#FFF36F" stroke-width="3" stroke-linecap="round"/>
</g>
<path d="M35.8232 13.4964C126.894 10.2313 202.728 18.19 339.898 13.4964M35.8232 13.4964C130.82 15.3913 229.509 9.82312 339.898 13.4964M35.8232 13.4964C25.484 16.3533 7.72073 16.0327 14.3285 29.6179M35.8232 13.4964C20.9363 6.9953 6.16596 23.4083 14.3285 29.6179M339.898 13.4964C348.488 12.272 364.269 22.0964 361.431 29.6179M339.898 13.4964C358.361 18.6273 353.152 19.8517 361.431 29.6179M361.431 29.6179C365.668 33.9033 359.799 46.0309 361.431 61.89M361.431 29.6179C359.332 39.7922 361.392 48.8878 361.431 61.89M361.431 61.89C358.283 67.6914 354.901 80.1105 339.898 78.0406M361.431 61.89C361.626 68.187 360.537 82.4427 339.898 78.0406M339.898 78.0406C271.177 77.9823 205.643 78.6237 35.8232 78.0406M339.898 78.0406C277.668 76.6121 211.396 75.2128 35.8232 78.0406M35.8232 78.0406C16.5441 82.4427 11.9963 74.5131 14.3285 61.89M35.8232 78.0406C24.2013 72.5016 10.908 74.7463 14.3285 61.89M14.3285 61.89C13.6677 49.8499 18.3709 41.7746 14.3285 29.6179M14.3285 61.89C14.7172 54.1062 13.007 42.3576 14.3285 29.6179" stroke="#1E1E1E" stroke-width="3" stroke-linecap="round"/>
<defs>
<filter id="filter0_f_6_278" x="0.500946" y="0.498257" width="373.999" height="90.2678" filterUnits="userSpaceOnUse" color-interpolation-filters="sRGB">
<feFlood flood-opacity="0" result="BackgroundImageFix"/>
<feBlend mode="normal" in="SourceGraphic" in2="BackgroundImageFix" result="shape"/>
<feGaussianBlur stdDeviation="5" result="effect1_foregroundBlur_6_278"/>
</filter>
</defs>
</svg>
