<svg width="135" height="35" viewBox="0 0 135 36" fill="none" xmlns="http://www.w3.org/2000/svg">
<path d="M10.4244 2.72837C50.9419 9.92911 99.6038 5.78941 125.029 2.72837C129.379 -1.46963 131.13 11.8823 132.736 10.3956C131.276 16.1095 134.341 20.2783 132.736 25.7591C128.97 32.5225 135.363 33.5429 125.029 33.4554C90.2626 28.7326 38.448 32.2601 10.4244 33.4554C9.16918 32.9598 0.499364 23.835 2.74709 25.7591C3.91474 22.5231 3.03901 19.3455 2.74709 10.3956C8.67292 -1.41132 5.52027 6.75146 10.4244 2.72837Z" fill="#E9ECEF"/>
<path d="M10.4244 2.72838C40.579 4.71077 70.6752 0.979211 125.029 2.72838M10.4244 2.72838C54.0654 2.99075 100.421 4.09856 125.029 2.72838M10.4244 2.72838C5.11159 -0.0994414 0.0906858 7.24706 2.74709 10.3956M10.4244 2.72838C4.3818 2.93245 4.55695 8.29656 2.74709 10.3956M125.029 2.72838C131.51 4.94399 130.021 5.70196 132.736 10.3956M125.029 2.72838C127.54 5.17721 133.758 8.35486 132.736 10.3956M132.736 10.3956C132.677 13.0193 132.736 16.2553 132.736 25.7591M132.736 10.3956C132.59 15.2349 132.765 20.8906 132.736 25.7591M132.736 25.7591C132.794 28.9367 132.21 35.3503 125.029 33.4554M132.736 25.7591C129.963 30.5401 127.569 32.3767 125.029 33.4554M125.029 33.4554C84.7162 31.1523 49.2488 35.1754 10.4244 33.4554M125.029 33.4554C94.3201 34.0385 65.0413 33.3971 10.4244 33.4554M10.4244 33.4554C6.19166 31.0357 1.63782 31.7937 2.74709 25.7591M10.4244 33.4554C5.98733 34.7964 1.52106 30.511 2.74709 25.7591M2.74709 25.7591C2.51356 21.9984 2.95143 18.296 2.74709 10.3956M2.74709 25.7591C2.45518 19.7827 2.98062 14.3603 2.74709 10.3956" stroke="#1E1E1E" stroke-width="3" stroke-linecap="round"/>
</svg>
